<svg width="40" height="40" viewBox="0 0 40 40" fill="none" xmlns="http://www.w3.org/2000/svg">
<path fill-rule="evenodd" clip-rule="evenodd" d="M9.77366 7.79921C11.0288 3.30047 15.1571 0 20.0562 0H21.4085L21.3961 4.14162C25.4648 1.84807 30.7177 2.4334 34.1819 5.89759L35.1381 6.85384L32.2008 9.77366C36.6995 11.0288 40 15.1571 40 20.0562V21.4085L35.8584 21.3961C38.1519 25.4648 37.5666 30.7177 34.1024 34.1819L33.1462 35.1381L30.2263 32.2008C28.9712 36.6995 24.8429 40 19.9438 40H18.5915L18.6039 35.8584C14.5352 38.1519 9.28233 37.5666 5.81814 34.1024L4.86188 33.1462L7.79921 30.2263C3.30047 28.9712 0 24.8429 0 19.9438V18.5915L4.14162 18.6039C1.84807 14.5352 2.4334 9.28233 5.89759 5.81814L6.85384 4.86188L9.77366 7.79921ZM9.39705 11.2454L6.92865 8.7622C4.72309 11.8764 5.015 16.2175 7.80439 19.0069C10.1538 21.3563 13.6042 21.934 16.4949 20.7398C12.5217 19.334 9.62891 15.6424 9.39705 11.2454ZM20.7398 23.5051C19.334 27.4783 15.6424 30.3711 11.2454 30.603L8.7622 33.0713C11.8764 35.2769 16.2175 34.985 19.0069 32.1956C21.3563 29.8462 21.934 26.3958 20.7398 23.5051ZM23.5051 19.2602C27.4783 20.666 30.3711 24.3576 30.603 28.7546L33.0713 31.2378C35.2769 28.1236 34.985 23.7825 32.1956 20.9931C29.8462 18.6437 26.3958 18.066 23.5051 19.2602ZM19.2602 16.4949C20.666 12.5217 24.3576 9.62891 28.7546 9.39705L31.2378 6.92865C28.1236 4.72309 23.7825 5.015 20.9931 7.80439C18.6437 10.1538 18.066 13.6042 19.2602 16.4949Z" fill="url(#paint0_linear_70_229)"/>
<defs>
<linearGradient id="paint0_linear_70_229" x1="4" y1="9" x2="21.4607" y2="39.3258" gradientUnits="userSpaceOnUse">
<stop offset="0.0249587" stop-color="#020277"/>
<stop offset="0.5" stop-color="white"/>
<stop offset="1" stop-color="#020277"/>
</linearGradient>
</defs>
</svg>
